<?xml version="1.0" encoding="utf-8"?>
<!-- Generator: Adobe Illustrator 16.0.3, SVG Export Plug-In . SVG Version: 6.00 Build 0)  -->
<!DOCTYPE svg PUBLIC "-//W3C//DTD SVG 1.1//EN" "http://www.w3.org/Graphics/SVG/1.1/DTD/svg11.dtd">
<svg version="1.1" id="Ebene_1" xmlns="http://www.w3.org/2000/svg" xmlns:xlink="http://www.w3.org/1999/xlink" x="0px" y="0px"
	 width="137.888px" height="49.236px" viewBox="0 0 137.888 49.236" enable-background="new 0 0 137.888 49.236"
	 xml:space="preserve">
<path fill="#FFFFFF" stroke="#DDDDDD" stroke-width="0.4807" stroke-miterlimit="10" d="M128.822,21.251
	c-3.283,0-5.908,1.644-7.453,4.414c-0.688-2.768-2.855-4.414-5.995-4.414c-0.958,0-1.859,0.133-2.697,0.396l-0.231-0.699
	l-7.004,1.371v-0.759c0.265-0.61,0.409-1.279,0.409-1.982c0-2.778-2.244-5.039-5.001-5.039c-2.83,0-5.13,2.261-5.13,5.039
	c0,0.925,0.254,1.791,0.689,2.536l-0.248,0.025v2.357c-1.29-2.862-4.151-3.245-5.575-3.245c-1.502,0-2.861,0.349-4.063,1.044
	c-0.987-0.618-2.271-1.044-3.767-1.044c-0.971,0-1.767,0.137-2.433,0.354l-0.206-0.664l-8.571,1.677l0.324,1.517
	c-1.401-1.735-3.51-2.884-6.513-2.884c-3.122,0-5.646,1.484-7.215,4.009v-4.099l-0.239,0.025c0.307-0.167,0.616-0.35,0.918-0.555
	c1.2-0.741,2.169-1.637,2.881-2.664c2.371-3.421,1.496-7.601,1.39-8.061l-1.291-5.636l-2.712,3.938
	c-0.63,0.152-1.425,0.387-2.281,0.745c-1.183-2.308-2.742-3.821-2.965-4.032l-0.117-0.11l-4.169-4.226v5.176
	c-5.721,6.552-3.427,11.212-1.6,14.807c-1.935,4.331-7.538-2.719-15.061,4.374c0,0-6.736-7.44-14.135-0.269
	c0.513-4.473-1.836-8.07-8.292-8.07c-1.087,0.002-10.23-0.115-10.23-0.115v25.781c0,0,10.647,0.065,18.883,0.065
	c0-0.76,0.034-1.454,0.034-2.638c4.474,4.673,10.011,2.672,12.344,1.59c0,11.078,18.326,9.049,18.615,1.275c3.087,0,8.026,0,8.026,0
	v-3.419c1.531,2.432,3.981,3.832,7.058,3.832c2.583,0,5.433-1.148,7.217-4.026v3.614h23.743h0.658h7.962h0.66h16.166v-3.419
	c1.529,2.432,3.979,3.832,7.058,3.832c4.144,0,8.982-2.953,8.982-11.276C137.647,26.647,135.329,21.251,128.822,21.251z"/>
<path fill-rule="evenodd" clip-rule="evenodd" fill="#96BD0D" d="M13.269,30.558c2.241,2.416,3.21,6.247,4.633,9.575
	c-1.949,0-3.897,0-5.846,0c-0.462-1.494-1.004-3.299-1.543-4.911c-0.496-1.479-0.888-3.617-2.647-3.682
	c-0.257,2.619-0.037,5.77-0.11,8.593c-1.69,0-3.381,0-5.072,0c0-7.161,0-14.322,0-21.483c-0.005-0.21,0.082-0.318,0.221-0.368
	c4.638,0.248,10.344-0.847,12.902,2.087C18.301,23.229,17.205,30.186,13.269,30.558z M11.063,26.752c0.632-0.743,0.66-2.627,0-3.315
	c-0.687-0.715-1.915-0.384-3.309-0.491c0,1.473,0,2.946,0,4.419C9.013,27.239,10.285,27.665,11.063,26.752z"/>
<path fill-rule="evenodd" clip-rule="evenodd" fill="#96BD0D" d="M32.3,33.675c-2.683,0-5.367,0-8.051,0
	c-0.379,4.169,4.729,3.093,6.065,1.35c0.693,0.989,1.366,2,1.875,3.191c-1.897,1.641-4.141,2.543-7.059,2.21
	c-3.372-0.385-5.667-3.272-5.955-7.121c-0.217-2.897,0.262-6.273,2.316-8.225c2.471-2.349,7.444-2.054,9.374,0.736
	C32.237,27.797,32.311,30.404,32.3,33.675z M24.25,30.115c1.066,0,2.132,0,3.199,0C28.148,26.417,23.611,26.606,24.25,30.115z"/>
<path fill-rule="evenodd" clip-rule="evenodd" fill="#96BD0D" d="M49.274,27.138c-0.395,0.503-1.104,0.653-1.985,0.613
	c0.302,0.729,0.73,2.117,0.332,3.438c-0.734,2.422-3.292,3.274-6.177,3.56c-0.399,0.04-1.168-0.292-1.433,0.368
	c0.274,0.87,1.241,0.595,1.764,0.614c2.081,0.078,3.967-0.044,5.294,0.982c2.256,1.745,1.846,6.48-0.333,8.348
	c-3.425,2.938-14.358,2.909-12.46-4.665c1.433,0,2.867,0,4.3,0c0.329,0.157,0.093,0.562,0.11,0.736
	c0.027,0.259,0.042,0.553,0.222,0.859c0.868,1.491,4.921,0.79,4.853-1.104c-0.078-2.125-5.736-0.862-7.389-1.596
	c-2.096-0.931-2.346-4.446,0.11-5.771c-2.208-0.913-2.619-5.429-0.993-7.488c1.312-1.661,3.843-2.311,6.066-2.21
	c2.102,0.096,4.767,1.665,6.285-0.368C48.485,24.497,48.72,25.996,49.274,27.138z M40.894,31.188
	c0.313,0.024,1.05-0.005,1.433-0.368c0.778-0.735,0.471-2.64-0.22-3.07c-0.269-0.166-0.707-0.151-1.103-0.122
	C38.808,27.785,38.899,31.033,40.894,31.188z"/>
<polygon fill="#96BD0D" points="51.365,40.132 51.365,24.117 56.188,23.612 56.188,40.132 "/>
<path fill="#96BD0D" d="M65.459,40.542c-4.068,0-6.59-3.089-6.59-8.48c0-5.265,2.585-8.606,6.747-8.606
	c3.626,0,6.59,2.301,6.59,8.133C72.206,38.02,68.832,40.542,65.459,40.542 M65.521,27.174c-0.978,0-1.481,0.946-1.481,4.982
	c0,3.152,0.159,4.666,1.514,4.666c1.135,0,1.481-1.514,1.481-5.391C67.035,28.183,66.657,27.174,65.521,27.174"/>
<path fill="#BD0926" d="M90.02,40.132V29.697c0-1.765-0.347-2.049-1.198-2.049c-0.379,0-0.945,0.158-1.577,0.819v11.665h-4.76
	V29.727c0-1.701-0.188-2.079-1.23-2.079c-0.408,0-0.913,0.158-1.544,0.819v11.665h-4.824v-11.38c0-1.64-0.094-2.806-0.44-4.415
	l4.382-0.851c0.156,0.503,0.253,0.977,0.315,1.577c0.914-0.789,1.733-1.608,3.847-1.608c1.828,0,3.185,0.914,3.625,1.702
	c0.788-0.788,2.081-1.702,4.192-1.702c3.312,0,4.006,2.238,4.006,4.477v12.2H90.02z"/>
<path fill="#BD0926" d="M100.96,22.351c-1.512,0-2.805-1.261-2.805-2.774c0-1.514,1.325-2.775,2.901-2.775
	c1.545,0,2.774,1.261,2.774,2.775C103.831,21.09,102.538,22.351,100.96,22.351 M98.596,40.132V24.117l4.825-0.504v16.52H98.596z"/>
<path fill="#BD0926" d="M114.77,40.132V29.318c0-1.765-0.533-1.701-1.197-1.701c-0.378,0-0.914,0.22-1.544,0.881v11.634h-4.824
	v-11.38c0-1.64-0.095-2.806-0.439-4.415l4.382-0.851c0.124,0.378,0.284,0.914,0.314,1.418c0.913-0.788,2.207-1.45,4.099-1.45
	c3.089,0,4.003,1.955,4.003,4.162v12.515H114.77z"/>
<path fill="#BD0926" d="M128.834,40.542c-4.068,0-6.59-3.089-6.59-8.48c0-5.265,2.586-8.606,6.746-8.606
	c3.627,0,6.589,2.301,6.589,8.133C135.579,38.02,132.207,40.542,128.834,40.542 M128.896,27.174c-0.978,0-1.482,0.946-1.482,4.982
	c0,3.152,0.159,4.666,1.515,4.666c1.135,0,1.479-1.514,1.479-5.391C130.408,28.183,130.03,27.174,128.896,27.174"/>
<path fill="#96BD0D" d="M53.065,21.324c0.211-0.232,0.468-0.531,0.744-0.888c0.932-0.206,2.602-0.686,4.08-1.686
	c0.957-0.581,1.715-1.269,2.256-2.043c1.842-2.636,1.077-6.073,1.043-6.218l-0.16-0.694l-0.352,0.507
	c-0.618,0.104-2.847,0.553-4.74,1.875c-0.837-3.137-3.233-5.41-3.341-5.51l-0.143-0.135L52.06,6.138v0.63
	c-0.604,0.59-3.579,3.693-3.601,7.491c-0.021,3.804,2.928,6.938,3.519,7.529l0.005,0.591l0.529-0.488
	c0.015-0.013,0.22-0.203,0.527-0.539"/>
<g>
	<defs>
		<path id="SVGID_1_" d="M50.331,10.891c-0.662,0.789-0.523,2.147,0.313,3.029c0.839,0.881,2.054,0.956,2.717,0.167
			c0.662-0.791,0.521-2.149-0.314-3.032c-0.447-0.472-1.004-0.712-1.527-0.712C51.065,10.343,50.638,10.522,50.331,10.891"/>
	</defs>
	<clipPath id="SVGID_2_">
		<use xlink:href="#SVGID_1_"  overflow="visible"/>
	</clipPath>
	
		<radialGradient id="SVGID_3_" cx="-754.3232" cy="716.7534" r="0.4805" gradientTransform="matrix(-5.1152 6.101 -6.4564 -6.8118 821.3931 9499.0215)" gradientUnits="userSpaceOnUse">
		<stop  offset="0" style="stop-color:#FFFFFF"/>
		<stop  offset="0.022" style="stop-color:#FFFFFF"/>
		<stop  offset="0.4505" style="stop-color:#8EBD43"/>
		<stop  offset="1" style="stop-color:#477B4E"/>
	</radialGradient>
	<polygon clip-path="url(#SVGID_2_)" fill="url(#SVGID_3_)" points="51.712,7.905 47.652,12.748 51.978,17.312 56.038,12.47 	"/>
</g>
</svg>
