<svg xmlns="http://www.w3.org/2000/svg" xmlns:xlink="http://www.w3.org/1999/xlink" version="1.1" id="Ebene_1" x="0px" y="0px" width="229.801px" height="82.056px" viewBox="0 0 229.801 82.056" enable-background="new 0 0 229.801 82.056" xml:space="preserve">
<path fill="#FFFFFF" stroke="#DDDDDD" stroke-width="0.8012" stroke-miterlimit="10" d="M214.694 35.4 c-5.474 0-9.848 2.739-12.422 7.356c-1.148-4.612-4.76-7.356-9.993-7.356c-1.594 0-3.096 0.222-4.493 0.66l-0.387-1.165 l-11.673 2.285v-1.266c0.441-1.017 0.684-2.131 0.684-3.303c0-4.63-3.74-8.397-8.336-8.397c-4.716 0-8.55 3.768-8.55 8.4 c0 1.5 0.4 3 1.1 4.227l-0.412 0.043v3.927c-2.152-4.77-6.919-5.408-9.294-5.408c-2.503 0-4.768 0.581-6.769 1.7 c-1.646-1.031-3.785-1.741-6.279-1.741c-1.618 0-2.942 0.229-4.053 0.59l-0.345-1.105l-14.283 2.795l0.54 2.5 c-2.335-2.892-5.85-4.807-10.854-4.807c-5.204 0-9.412 2.474-12.025 6.683v-6.831l-0.398 0.041c0.513-0.279 1.026-0.583 1.529-0.925 c2-1.234 3.615-2.728 4.804-4.439c3.95-5.701 2.492-12.667 2.315-13.434L103 7.117l-4.52 6.565c-1.05 0.252-2.376 0.646-3.803 1.2 c-1.971-3.845-4.57-6.368-4.941-6.72l-0.194-0.185l-6.949-7.042v8.626c-9.534 10.92-5.71 18.687-2.666 24.7 c-3.226 7.218-12.563-4.531-25.101 7.29c0 0-11.226-12.399-23.556-0.448c0.854-7.454-3.06-13.45-13.821-13.45 C15.637 27.7 0.4 27.5 0.4 27.478v42.967c0 0 17.7 0.1 31.5 0.108c0-1.269 0.057-2.424 0.057-4.397 c7.455 7.8 16.7 4.5 20.6 2.651c0 18.5 30.5 15.1 31 2.125c5.145 0 13.4 0 13.4 0v-5.698 c2.551 4.1 6.6 6.4 11.8 6.387c4.306 0 9.055-1.915 12.028-6.711v6.022h39.571h1.098h13.267h1.101h26.941v-5.698 c2.549 4.1 6.6 6.4 11.8 6.387c6.905 0 14.968-4.922 14.968-18.793C229.4 44.4 225.5 35.4 214.7 35.417z"/>
<path fill-rule="evenodd" clip-rule="evenodd" fill="#96BD0D" d="M22.113 50.925c3.735 4 5.3 10.4 7.7 16 c-3.248 0-6.494 0-9.741 0c-0.771-2.49-1.674-5.5-2.573-8.184c-0.827-2.468-1.479-6.029-4.411-6.139 c-0.428 4.364-0.062 9.616-0.184 14.322c-2.817 0-5.636 0-8.454 0c0-11.936 0-23.869 0-35.804c-0.008-0.35 0.137-0.529 0.368-0.614 c7.73 0.4 17.239-1.411 21.5 3.479C30.5 38.7 28.7 50.3 22.1 50.925z M18.438 44.583c1.055-1.237 1.099-4.378 0-5.524 c-1.144-1.192-3.191-0.64-5.514-0.818c0 2.5 0 4.9 0 7.365C15.021 45.4 17.1 46.1 18.4 44.583z"/>
<path fill-rule="evenodd" clip-rule="evenodd" fill="#96BD0D" d="M53.832 56.121c-4.472 0-8.944 0-13.418 0 c-0.632 7 7.9 5.2 10.1 2.25c1.155 1.6 2.3 3.3 3.1 5.319c-3.162 2.734-6.9 4.237-11.764 3.7 c-5.619-0.641-9.445-5.452-9.925-11.866c-0.362-4.829 0.438-10.456 3.86-13.707c4.118-3.914 12.405-3.423 15.6 1.2 C53.725 46.3 53.8 50.7 53.8 56.121z M40.414 50.187c1.778 0 3.6 0 5.3 0C46.912 44 39.4 44.3 40.4 50.187z"/>
<path fill-rule="evenodd" clip-rule="evenodd" fill="#96BD0D" d="M82.119 45.227c-0.657 0.837-1.84 1.088-3.308 1 c0.504 1.2 1.2 3.5 0.6 5.729c-1.224 4.037-5.486 5.455-10.294 5.933c-0.665 0.066-1.948-0.486-2.388 0.6 c0.457 1.4 2.1 1 2.9 1.022c3.468 0.1 6.611-0.072 8.8 1.637c3.76 2.9 3.1 10.801-0.554 13.9 c-5.708 4.897-23.93 4.849-20.767-7.773c2.389 0 4.8 0 7.2 0c0.548 0.3 0.2 0.9 0.2 1.2 c0.044 0.4 0.1 0.9 0.4 1.433c1.446 2.5 8.2 1.3 8.087-1.842c-0.13-3.541-9.559-1.437-12.314-2.659 c-3.494-1.552-3.91-7.41 0.185-9.616c-3.68-1.521-4.365-9.049-1.656-12.479c2.186-2.769 6.405-3.852 10.11-3.683 c3.502 0.2 7.9 2.8 10.475-0.613C80.805 40.8 81.2 43.3 82.1 45.227z M68.152 52 c0.522 0 1.751-0.01 2.388-0.614c1.297-1.225 0.786-4.398-0.366-5.114c-0.448-0.278-1.179-0.252-1.839-0.204 C64.677 46.3 64.8 51.7 68.2 51.978z"/>
<polygon fill="#96BD0D" points="85.6,66.9 85.6,40.2 93.6,39.4 93.6,66.9"/>
<path fill="#96BD0D" d="M109.094 67.566c-6.778 0-10.983-5.147-10.983-14.134c0-8.773 4.31-14.343 11.244-14.343 c6.044 0 11 3.8 11 13.556C120.336 63.4 114.7 67.6 109.1 67.6 M109.197 45.289c-1.629 0-2.47 1.576-2.47 8.3 c0 5.3 0.3 7.8 2.5 7.775c1.892 0 2.469-2.523 2.469-8.983C111.719 47 111.1 45.3 109.2 45.3"/>
<path fill="#BD0926" d="M150.024 66.884V49.492c0-2.941-0.577-3.414-1.996-3.414c-0.631 0-1.576 0.263-2.628 1.365v19.441h-7.933 V49.543c0-2.836-0.314-3.466-2.05-3.466c-0.683 0-1.522 0.263-2.573 1.365v19.441h-8.04V47.917c0-2.732-0.157-4.676-0.734-7.356 l7.303-1.418c0.261 0.8 0.4 1.6 0.5 2.627c1.524-1.314 2.891-2.68 6.411-2.68c3.048 0 5.3 1.5 6 2.8 c1.314-1.313 3.469-2.837 6.988-2.837c5.517 0 6.7 3.7 6.7 7.461v20.334H150.024z"/>
<path fill="#BD0926" d="M168.259 37.249c-2.521 0-4.676-2.101-4.676-4.622c0-2.523 2.208-4.625 4.835-4.625 c2.574 0 4.6 2.1 4.6 4.625C173.042 35.1 170.9 37.2 168.3 37.2 M164.318 66.884V40.192l8.04-0.841v27.533H164.318z "/>
<path fill="#BD0926" d="M191.273 66.884V48.861c0-2.942-0.891-2.836-1.995-2.836c-0.631 0-1.524 0.367-2.574 1.47v19.39h-8.04 V47.917c0-2.732-0.157-4.676-0.733-7.356l7.303-1.418c0.21 0.6 0.5 1.5 0.5 2.363c1.523-1.313 3.679-2.416 6.831-2.416 c5.148 0 6.7 3.3 6.7 6.936v20.859H191.273z"/>
<path fill="#BD0926" d="M214.712 67.566c-6.778 0-10.981-5.147-10.981-14.134c0-8.773 4.31-14.343 11.243-14.343 c6.043 0 11 3.8 11 13.556C225.955 63.4 220.3 67.6 214.7 67.6 M214.816 45.3 c-1.629 0-2.469 1.576-2.469 8.303c0 5.3 0.3 7.8 2.5 7.775c1.89 0 2.468-2.523 2.468-8.983 C217.338 47 216.7 45.3 214.8 45.3"/>
<path fill="#96BD0D" d="M88.438 35.539c0.352-0.388 0.779-0.886 1.239-1.481c1.554-0.342 4.337-1.141 6.801-2.809 c1.594-0.968 2.858-2.114 3.76-3.405c3.069-4.394 1.795-10.121 1.738-10.362l-0.267-1.156l-0.586 0.8 c-1.031 0.172-4.746 0.92-7.901 3.124c-1.396-5.229-5.389-9.016-5.567-9.182l-0.238-0.225l-0.654-0.658v1.05 c-1.006 0.982-5.965 6.154-6.001 12.484c-0.035 6.3 4.9 11.6 5.9 12.548l0.008 0.984l0.881-0.813 c0.025-0.022 0.367-0.338 0.879-0.898"/>
<g>
	<defs>
		<path id="SVGID_1_" d="M83.88 18.149c-1.104 1.316-0.871 3.6 0.5 5.048c1.398 1.5 3.4 1.6 4.5 0.3 c1.103-1.318 0.869-3.583-0.523-5.053c-0.746-0.787-1.675-1.187-2.546-1.187C85.104 17.2 84.4 17.5 83.9 18.1"/>
	</defs>
	<clipPath id="SVGID_2_">
		<use xlink:href="#SVGID_1_" overflow="visible"/>
	</clipPath>
	
		<radialGradient id="SVGID_3_" cx="-727.9" cy="590.5" r="0.8" gradientTransform="matrix(-5.1152 6.101 -6.4564 -6.8118 175.9938 8487.7383)" gradientUnits="userSpaceOnUse">
		<stop offset="0" style="stop-color:#FFFFFF"/>
		<stop offset="0.022" style="stop-color:#FFFFFF"/>
		<stop offset="0.4505" style="stop-color:#8EBD43"/>
		<stop offset="1" style="stop-color:#477B4E"/>
	</radialGradient>
	<polygon clip-path="url(#SVGID_2_)" fill="url(#SVGID_3_)" points="86.2,13.2 79.4,21.2 86.6,28.9 93.4,20.8"/>
</g>
</svg>
